<svg width="62" height="62" viewBox="0 0 62 62" fill="none" xmlns="http://www.w3.org/2000/svg">
<g filter="url(#filter0_b_279_315)">
<path d="M62 31C62 48.1208 48.1208 62 31 62V62C13.8792 62 0 48.1208 0 31V31C0 13.8792 13.8792 0 31 0V0C48.1208 0 62 13.8792 62 31V31Z" fill="#818181" fill-opacity="0.25"/>
</g>
<path d="M31.813 17.9467C31.333 17.5734 30.6664 17.5734 30.1864 17.9467C27.6531 19.88 20.1731 26.1867 20.2131 33.5334C20.2131 39.48 25.0531 44.3334 31.0131 44.3334C36.9731 44.3334 41.813 39.4934 41.813 33.5467C41.8264 26.3067 34.333 19.8934 31.813 17.9467Z" fill="#ff623e"/>
<defs>
<filter id="filter0_b_279_315" x="-25" y="-25" width="112" height="112" filterUnits="userSpaceOnUse" color-interpolation-filters="sRGB">
<feFlood flood-opacity="0" result="BackgroundImageFix"/>
<feGaussianBlur in="BackgroundImageFix" stdDeviation="12.5"/>
<feComposite in2="SourceAlpha" operator="in" result="effect1_backgroundBlur_279_315"/>
<feBlend mode="normal" in="SourceGraphic" in2="effect1_backgroundBlur_279_315" result="shape"/>
</filter>
</defs>
</svg>
