<svg width="62" height="62" viewBox="0 0 62 62" fill="none" xmlns="http://www.w3.org/2000/svg">
<g filter="url(#filter0_b_279_318)">
<rect x="62" y="62" width="62" height="62" rx="31" transform="rotate(180 62 62)" fill="#818181" fill-opacity="0.25"/>
</g>
<path d="M25.3299 31.4233C25.3471 30.7246 24.9435 30.0838 24.3059 29.7975C23.6684 29.5112 22.9213 29.6353 22.4106 30.1124L19.4913 32.8689C18.7949 33.5257 18.7628 34.6228 19.4197 35.3191C20.0765 36.0155 21.1735 36.0476 21.8699 35.3907L24.7892 32.6342C25.1238 32.3189 25.3185 31.8829 25.3299 31.4233Z" fill="#ff8f03"/>
<path d="M38.6299 16.6904C36.3444 16.6203 34.1253 17.4652 32.4651 19.0376C20.1193 30.6957 32.0615 19.4194 26.6265 24.5523C26.4042 24.766 26.2732 25.0576 26.2611 25.3657C26.2296 26.6233 28.4416 27.6074 29.8367 26.2881L34.0275 22.3325C34.3523 22.0258 34.7857 21.8608 35.2322 21.8736C35.6787 21.8865 36.1018 22.0762 36.4084 22.401L44.6897 31.178C49.6694 25.8351 46.1067 16.9088 38.6299 16.6904Z" fill="#ff8f03"/>
<path d="M31.6275 38.0995C31.6448 37.4008 31.2412 36.76 30.6036 36.4737C29.9661 36.1874 29.219 36.3116 28.7082 36.7886L25.7889 39.5451C25.3386 39.97 25.1491 40.6029 25.2919 41.2054C25.4347 41.8079 25.888 42.2885 26.4812 42.466C27.0744 42.6436 27.7172 42.4913 28.1676 42.0664L31.0869 39.3099C31.4216 38.9949 31.6163 38.559 31.6275 38.0995Z" fill="#ff8f03"/>
<path d="M44.2773 32.3749C44.2212 32.335 44.3958 32.5029 35.5913 23.1718C35.489 23.0635 35.3479 23.0003 35.199 22.9961C35.0501 22.9919 34.9057 23.047 34.7975 23.1493L30.6066 27.1039C29.9462 27.7289 29.0642 28.0653 28.1553 28.0388C27.2464 28.0122 26.3855 27.6249 25.7628 26.9624C25.3464 26.5231 25.1219 25.9361 25.1389 25.331C25.1558 24.7259 25.4128 24.1525 25.8532 23.7371L30.4511 19.3952C28.3441 17.1346 25.1878 16.1753 22.1792 16.8811C19.1706 17.587 16.7703 19.8499 15.8886 22.8118C15.0069 25.7737 15.7788 28.9809 17.9116 31.2173L18.7076 32.0594C18.757 32.0032 18.7127 32.0532 21.6359 29.2939C22.5329 28.4479 23.872 28.2743 24.9551 28.8636C26.0382 29.4529 26.6197 30.6716 26.3966 31.8842C27.2976 31.765 28.2009 32.0859 28.8248 32.7468C29.4486 33.4077 29.717 34.328 29.5461 35.2206C30.4474 35.1024 31.3508 35.4242 31.9744 36.0856C32.5981 36.7469 32.8664 37.6675 32.6956 38.5604C33.5738 38.4434 34.456 38.7454 35.0783 39.376C35.7005 40.0067 35.9907 40.8929 35.8619 41.7694C36.6056 42.2017 37.5539 42.0222 38.0882 41.3479C38.6224 40.6737 38.5804 39.7094 37.9896 39.0842L30.5095 31.1589C30.3718 31.013 30.3224 30.8047 30.3799 30.6125C30.4374 30.4203 30.5931 30.2734 30.7883 30.2271C30.9835 30.1808 31.1886 30.2422 31.3263 30.3881L38.8064 38.3157C39.2315 38.7659 39.8646 38.9552 40.4671 38.8122C41.0696 38.6692 41.55 38.2156 41.7274 37.6223C41.9048 37.029 41.7522 36.3862 41.3271 35.9359L33.8464 28.0089C33.6383 27.7827 33.6507 27.4311 33.8744 27.2202C34.098 27.0094 34.4497 27.0175 34.6633 27.2386L42.1445 35.1656C42.6267 35.6751 43.3682 35.844 44.0234 35.5937C44.6787 35.3434 45.1187 34.7232 45.1385 34.022C45.1126 33.3717 44.7966 32.7672 44.2773 32.3749Z" fill="#ff8f03"/>
<path d="M33.0952 39.6546C32.6356 39.64 32.1893 39.8098 31.8556 40.1262L28.9363 42.8833C28.4859 43.3083 28.2965 43.9413 28.4394 44.5438C28.5823 45.1463 29.0357 45.6269 29.629 45.8044C30.2223 45.982 30.8652 45.8295 31.3155 45.4045L34.2348 42.648C34.7423 42.1659 34.9105 41.4261 34.6615 40.7719C34.4124 40.1178 33.7948 39.6772 33.0952 39.6546Z" fill="#ff8f03"/>
<path d="M28.4786 34.7614C28.4959 34.0627 28.0923 33.4219 27.4547 33.1356C26.8171 32.8494 26.0701 32.9735 25.5593 33.4505L22.64 36.207C21.9558 36.8664 21.9299 37.9538 22.582 38.645C23.2341 39.3363 24.3212 39.3736 25.0193 38.7289L27.9386 35.9718C28.2729 35.6566 28.4673 35.2208 28.4786 34.7614Z" fill="#ff8f03"/>
<defs>
<filter id="filter0_b_279_318" x="-25" y="-25" width="112" height="112" filterUnits="userSpaceOnUse" color-interpolation-filters="sRGB">
<feFlood flood-opacity="0" result="BackgroundImageFix"/>
<feGaussianBlur in="BackgroundImageFix" stdDeviation="12.5"/>
<feComposite in2="SourceAlpha" operator="in" result="effect1_backgroundBlur_279_318"/>
<feBlend mode="normal" in="SourceGraphic" in2="effect1_backgroundBlur_279_318" result="shape"/>
</filter>
</defs>
</svg>
