<svg width="41" height="40" viewBox="0 0 41 40" fill="none" xmlns="http://www.w3.org/2000/svg">
<path d="M20.2312 28.8188C21.7151 28.8188 22.9181 27.6158 22.9181 26.1319C22.9181 24.6481 21.7151 23.4451 20.2312 23.4451C18.7474 23.4451 17.5444 24.6481 17.5444 26.1319C17.5444 27.6158 18.7474 28.8188 20.2312 28.8188Z" fill="#ff0018"/>
<path d="M30.5827 15.9286V13.8681C30.5827 9.41758 29.5113 3.51648 20.2311 3.51648C10.9509 3.51648 9.87943 9.41758 9.87943 13.8681V15.9286C5.26404 16.5055 3.74756 18.8461 3.74756 24.5989V27.6648C3.74756 34.4231 5.808 36.4835 12.5662 36.4835H27.8959C34.6542 36.4835 36.7146 34.4231 36.7146 27.6648V24.5989C36.7146 18.8461 35.1981 16.5055 30.5827 15.9286ZM20.2311 31.1099C17.4783 31.1099 15.2531 28.8681 15.2531 26.1319C15.2531 23.3791 17.4948 21.1538 20.2311 21.1538C22.9673 21.1538 25.2091 23.3956 25.2091 26.1319C25.2091 28.8846 22.9838 31.1099 20.2311 31.1099ZM12.5662 15.7802C12.4344 15.7802 12.319 15.7802 12.1871 15.7802V13.8681C12.1871 9.03846 13.5553 5.82417 20.2311 5.82417C26.9069 5.82417 28.275 9.03846 28.275 13.8681V15.7967C28.1432 15.7967 28.0278 15.7967 27.8959 15.7967H12.5662V15.7802Z" fill="#ff0018"/>
</svg>
