<svg width="40" height="40" viewBox="0 0 40 40" fill="none" xmlns="http://www.w3.org/2000/svg">
<g filter="url(#filter0_b_87_185)">
<rect x="40" y="40" width="40" height="40" rx="4" transform="rotate(180 40 40)" fill="#818181" fill-opacity="0.25"/>
</g>
<path d="M29.4158 15.0405L29.4049 15.0485L29.4058 15.062C29.4216 15.2831 29.4216 15.5043 29.4216 15.7265C29.4216 22.4894 24.2743 30.2801 14.868 30.2801C12.0073 30.2801 9.34735 29.4623 7.10118 28.0401C7.47789 28.079 7.84441 28.0923 8.2373 28.0923C10.6382 28.0923 12.8484 27.2814 14.6134 25.898L14.6672 25.8558L14.5989 25.8544C12.3708 25.8073 10.5014 24.3568 9.84309 22.3554C10.1482 22.3999 10.4543 22.4292 10.7754 22.4292C11.2376 22.4292 11.6997 22.3654 12.1299 22.254L12.1286 22.2064C9.79201 21.7327 8.0396 19.6804 8.0396 17.2018V17.1797C8.71668 17.5505 9.50042 17.7818 10.3302 17.8131L10.4166 17.8163L10.3447 17.7684C8.97115 16.8526 8.07134 15.2897 8.07134 13.5215C8.07134 12.587 8.31714 11.7293 8.74827 10.9788C11.2747 14.0776 15.0625 16.1001 19.3083 16.3219L19.3399 16.3236L19.3335 16.2926C19.2545 15.9132 19.2071 15.5184 19.2071 15.1237C19.2071 12.3135 21.4805 10.0244 24.3064 10.0244C25.7747 10.0244 27.1008 10.6401 28.0322 11.6347L28.0414 11.6445L28.0546 11.642C29.1936 11.4236 30.2865 11.0061 31.2586 10.4348C30.8718 11.5917 30.0763 12.5628 29.0369 13.1833L29.052 13.2286C30.0568 13.1204 31.0312 12.8469 31.9316 12.4669C31.2435 13.4516 30.39 14.3292 29.4158 15.0405Z" fill="#ff0018" stroke="#ff0018" stroke-width="0.0488281"/>
<defs>
<filter id="filter0_b_87_185" x="-25" y="-25" width="90" height="90" filterUnits="userSpaceOnUse" color-interpolation-filters="sRGB">
<feFlood flood-opacity="0" result="BackgroundImageFix"/>
<feGaussianBlur in="BackgroundImageFix" stdDeviation="12.5"/>
<feComposite in2="SourceAlpha" operator="in" result="effect1_backgroundBlur_87_185"/>
<feBlend mode="normal" in="SourceGraphic" in2="effect1_backgroundBlur_87_185" result="shape"/>
</filter>
</defs>
</svg>
