<svg width="40" height="40" viewBox="0 0 40 40" fill="none" xmlns="http://www.w3.org/2000/svg">
<g filter="url(#filter0_b_87_188)">
<rect x="40" y="40" width="40" height="40" rx="4" transform="rotate(180 40 40)" fill="#818181" fill-opacity="0.25"/>
</g>
<path d="M30.12 12.1468C27.696 10.3246 23.863 10.0159 23.701 10.0028C23.445 9.98218 23.202 10.1178 23.097 10.3367C23.093 10.3442 22.879 10.9251 22.672 11.4854C25.489 11.9466 27.403 12.97 27.505 13.0261C27.983 13.2861 28.143 13.8596 27.864 14.3058C27.679 14.6032 27.344 14.7697 27 14.7697C26.829 14.7697 26.657 14.7295 26.499 14.6434C26.471 14.6275 23.663 13.1327 20.002 13.1327C16.34 13.1327 13.531 14.6285 13.503 14.6434C13.026 14.9026 12.414 14.7501 12.137 14.3029C11.86 13.8577 12.021 13.2861 12.497 13.0261C12.599 12.97 14.52 11.9429 17.345 11.4826C17.127 10.9157 16.907 10.3442 16.903 10.3367C16.798 10.1169 16.555 9.97844 16.299 10.0028C16.137 10.0149 12.304 10.3236 9.848 12.1711C8.564 13.2805 6 19.7668 6 25.3747C6 25.4739 6.027 25.5702 6.08 25.6563C7.851 28.5655 12.679 29.3269 13.779 29.3597C13.786 29.3606 13.792 29.3606 13.798 29.3606C13.992 29.3606 14.175 29.2736 14.29 29.1268L15.48 27.6188C12.87 27.0305 11.49 26.1053 11.407 26.0483C10.963 25.7424 10.867 25.1568 11.194 24.7405C11.52 24.3261 12.144 24.2344 12.588 24.5385C12.625 24.5609 15.172 26.2288 20 26.2288C24.847 26.2288 27.387 24.5544 27.412 24.5375C27.856 24.2363 28.482 24.3271 28.807 24.7443C29.131 25.1596 29.037 25.7414 28.595 26.0464C28.512 26.1034 27.139 27.0267 24.535 27.6151L25.71 29.1258C25.825 29.2736 26.008 29.3597 26.202 29.3597C26.209 29.3597 26.215 29.3597 26.221 29.3588C27.322 29.326 32.15 28.5646 33.92 25.6554C33.973 25.5693 34 25.473 34 25.3738C34 19.7668 31.436 13.2805 30.12 12.1468ZM16 23.4225C14.895 23.4225 14 22.3757 14 21.0839C14 19.7921 14.895 18.7453 16 18.7453C17.105 18.7453 18 19.7921 18 21.0839C18 22.3757 17.105 23.4225 16 23.4225ZM24 23.4225C22.895 23.4225 22 22.3757 22 21.0839C22 19.7921 22.895 18.7453 24 18.7453C25.105 18.7453 26 19.7921 26 21.0839C26 22.3757 25.105 23.4225 24 23.4225Z" fill="#ff623e"/>
<defs>
<filter id="filter0_b_87_188" x="-25" y="-25" width="90" height="90" filterUnits="userSpaceOnUse" color-interpolation-filters="sRGB">
<feFlood flood-opacity="0" result="BackgroundImageFix"/>
<feGaussianBlur in="BackgroundImageFix" stdDeviation="12.5"/>
<feComposite in2="SourceAlpha" operator="in" result="effect1_backgroundBlur_87_188"/>
<feBlend mode="normal" in="SourceGraphic" in2="effect1_backgroundBlur_87_188" result="shape"/>
</filter>
</defs>
</svg>
