<svg width="62" height="62" viewBox="0 0 62 62" fill="none" xmlns="http://www.w3.org/2000/svg">
<g filter="url(#filter0_b_100_229)">
<rect x="62" y="62" width="62" height="62" rx="31" transform="rotate(180 62 62)" fill="#818181" fill-opacity="0.25"/>
</g>
<path d="M40.0801 23.3333H41.8934C41.6401 22.9733 41.3734 22.64 41.0934 22.3066L40.0801 23.3333Z" fill="#ff623e"/>
<path d="M39.6937 20.8933C39.3603 20.6133 39.027 20.3467 38.667 20.0933V21.9067L39.6937 20.8933Z" fill="#ff623e"/>
<path d="M41.1067 22.3066L45.04 18.3733C45.4267 17.9866 45.4267 17.3466 45.04 16.96C44.6534 16.5733 44.0134 16.5733 43.6267 16.96L39.6934 20.8933C40.2 21.3333 40.6667 21.8133 41.1067 22.3066Z" fill="#ff623e"/>
<path d="M38.6664 19C38.6664 18.4533 38.213 18 37.6664 18C37.133 18 36.7064 18.4267 36.6797 18.9467C37.373 19.28 38.0397 19.6533 38.6664 20.0933V19Z" fill="#ff623e"/>
<path d="M44.0002 24.3333C44.0002 23.7866 43.5469 23.3333 43.0002 23.3333H41.8936C42.3336 23.96 42.7202 24.6266 43.0402 25.32C43.5736 25.2933 44.0002 24.8666 44.0002 24.3333Z" fill="#ff623e"/>
<path d="M32 34.6667H32.4C32.92 34.6667 33.3333 34.2 33.3333 33.6267C33.3333 32.9067 33.1333 32.8 32.68 32.64L32 32.4V34.6667Z" fill="#ff623e"/>
<path d="M43.0537 25.32C43.0403 25.32 43.027 25.3334 43.0003 25.3334H37.667C37.5337 25.3334 37.4137 25.3067 37.2803 25.2534C37.0403 25.1467 36.8403 24.96 36.7337 24.7067C36.6937 24.5867 36.667 24.4667 36.667 24.3334V19C36.667 18.9867 36.6803 18.9734 36.6803 18.9467C34.947 18.1334 33.027 17.6667 31.0003 17.6667C23.6403 17.6667 17.667 23.64 17.667 31C17.667 38.36 23.6403 44.3334 31.0003 44.3334C38.3603 44.3334 44.3337 38.36 44.3337 31C44.3337 28.9734 43.867 27.0534 43.0537 25.32ZM33.3337 30.76C34.187 31.0534 35.3337 31.68 35.3337 33.64C35.3337 35.3067 34.0137 36.68 32.4003 36.68H32.0003V37.0134C32.0003 37.56 31.547 38.0134 31.0003 38.0134C30.4537 38.0134 30.0003 37.56 30.0003 37.0134V36.68H29.8937C28.1203 36.68 26.667 35.1867 26.667 33.3467C26.667 32.7867 27.1203 32.3334 27.667 32.3334C28.2137 32.3334 28.667 32.7867 28.667 33.3334C28.667 34.0667 29.2137 34.6667 29.8937 34.6667H30.0003V31.7067L28.667 31.24C27.8137 30.9467 26.667 30.32 26.667 28.36C26.667 26.6934 27.987 25.32 29.6003 25.32H30.0003V25C30.0003 24.4534 30.4537 24 31.0003 24C31.547 24 32.0003 24.4534 32.0003 25V25.3334H32.107C33.8803 25.3334 35.3337 26.8267 35.3337 28.6667C35.3337 29.2134 34.8803 29.6667 34.3337 29.6667C33.787 29.6667 33.3337 29.2134 33.3337 28.6667C33.3337 27.9334 32.787 27.3334 32.107 27.3334H32.0003V30.2934L33.3337 30.76Z" fill="#ff623e"/>
<path d="M28.667 28.3733C28.667 29.0933 28.867 29.2 29.3203 29.36L30.0003 29.6V27.3333H29.6003C29.0937 27.3333 28.667 27.8 28.667 28.3733Z" fill="#ff623e"/>
<defs>
<filter id="filter0_b_100_229" x="-25" y="-25" width="112" height="112" filterUnits="userSpaceOnUse" color-interpolation-filters="sRGB">
<feFlood flood-opacity="0" result="BackgroundImageFix"/>
<feGaussianBlur in="BackgroundImageFix" stdDeviation="12.5"/>
<feComposite in2="SourceAlpha" operator="in" result="effect1_backgroundBlur_100_229"/>
<feBlend mode="normal" in="SourceGraphic" in2="effect1_backgroundBlur_100_229" result="shape"/>
</filter>
</defs>
</svg>
