<svg width="62" height="62" viewBox="0 0 62 62" fill="none" xmlns="http://www.w3.org/2000/svg">
<g filter="url(#filter0_b_100_274)">
<rect x="62" y="62" width="62" height="62" rx="31" transform="rotate(180 62 62)" fill="#818181" fill-opacity="0.25"/>
</g>
<path d="M41.6668 31V39C41.6668 41.9466 39.2802 44.3333 36.3335 44.3333H25.6668C22.7202 44.3333 20.3335 41.9466 20.3335 39V31C20.3335 30.2666 20.9335 29.6666 21.6668 29.6666H24.2935C25.0268 29.6666 25.6268 30.2666 25.6268 31V35.1866C25.6268 36.1733 26.1735 37.08 27.0402 37.5466C27.4268 37.76 27.8535 37.8666 28.2935 37.8666C28.8002 37.8666 29.3068 37.72 29.7468 37.4266L31.0135 36.6L32.1868 37.3866C33.0002 37.9333 34.0402 38 34.9068 37.5333C35.7868 37.0666 36.3335 36.1733 36.3335 35.1733V31C36.3335 30.2666 36.9335 29.6666 37.6668 29.6666H40.3335C41.0668 29.6666 41.6668 30.2666 41.6668 31Z" fill="#ff0018"/>
<path d="M43.6668 24.3333V25.6666C43.6668 27.1333 42.9602 28.3333 41.0002 28.3333H21.0002C18.9602 28.3333 18.3335 27.1333 18.3335 25.6666V24.3333C18.3335 22.8666 18.9602 21.6666 21.0002 21.6666H41.0002C42.9602 21.6666 43.6668 22.8666 43.6668 24.3333Z" fill="#ff0018"/>
<path d="M30.5199 21.6667H23.1599C22.7065 21.1734 22.7199 20.4134 23.1999 19.9334L25.0932 18.04C25.5865 17.5467 26.3999 17.5467 26.8932 18.04L30.5199 21.6667Z" fill="#ff0018"/>
<path d="M38.8268 21.6667H31.4668L35.0935 18.04C35.5868 17.5467 36.4001 17.5467 36.8935 18.04L38.7868 19.9334C39.2668 20.4134 39.2801 21.1734 38.8268 21.6667Z" fill="#ff0018"/>
<path d="M33.6266 29.6666C34.3599 29.6666 34.9599 30.2666 34.9599 31V35.1733C34.9599 36.24 33.7733 36.88 32.8933 36.28L31.6933 35.48C31.2533 35.1866 30.6799 35.1866 30.2266 35.48L28.9733 36.3066C28.0933 36.8933 26.9199 36.2533 26.9199 35.2V31C26.9199 30.2666 27.5199 29.6666 28.2533 29.6666H33.6266Z" fill="#ff0018"/>
<defs>
<filter id="filter0_b_100_274" x="-25" y="-25" width="112" height="112" filterUnits="userSpaceOnUse" color-interpolation-filters="sRGB">
<feFlood flood-opacity="0" result="BackgroundImageFix"/>
<feGaussianBlur in="BackgroundImageFix" stdDeviation="12.5"/>
<feComposite in2="SourceAlpha" operator="in" result="effect1_backgroundBlur_100_274"/>
<feBlend mode="normal" in="SourceGraphic" in2="effect1_backgroundBlur_100_274" result="shape"/>
</filter>
</defs>
</svg>
