<svg width="62" height="62" viewBox="0 0 62 62" fill="none" xmlns="http://www.w3.org/2000/svg">
<g filter="url(#filter0_b_100_245)">
<rect x="62" y="62" width="62" height="62" rx="31" transform="rotate(180 62 62)" fill="#818181" fill-opacity="0.25"/>
</g>
<path d="M34.9599 32H33.9332H27.7065V35.7733H29.4532H34.9599C36.2265 35.7733 37.2665 34.92 37.2665 33.88C37.2665 32.84 36.2265 32 34.9599 32Z" fill="#ff8f03"/>
<path d="M30.9998 17.6667C23.6398 17.6667 17.6665 23.64 17.6665 31C17.6665 38.36 23.6398 44.3334 30.9998 44.3334C38.3598 44.3334 44.3332 38.36 44.3332 31C44.3332 23.64 38.3598 17.6667 30.9998 17.6667ZM34.9598 37.7734H32.7598V39.6667C32.7598 40.2134 32.3065 40.6667 31.7598 40.6667C31.2132 40.6667 30.7598 40.2134 30.7598 39.6667V37.7734H29.4532H29.1465V39.6667C29.1465 40.2134 28.6932 40.6667 28.1465 40.6667C27.5998 40.6667 27.1465 40.2134 27.1465 39.6667V37.7734H26.7065H24.3998C23.8532 37.7734 23.3998 37.32 23.3998 36.7734C23.3998 36.2267 23.8532 35.7734 24.3998 35.7734H25.7065V31V26.2267H24.3998C23.8532 26.2267 23.3998 25.7734 23.3998 25.2267C23.3998 24.68 23.8532 24.2267 24.3998 24.2267H26.7065H27.1465V22.3334C27.1465 21.7867 27.5998 21.3334 28.1465 21.3334C28.6932 21.3334 29.1465 21.7867 29.1465 22.3334V24.2267H29.4532H30.7598V22.3334C30.7598 21.7867 31.2132 21.3334 31.7598 21.3334C32.3065 21.3334 32.7598 21.7867 32.7598 22.3334V24.2267H33.9332C35.9998 24.2267 37.8265 26.04 37.8265 28.12C37.8265 29.0134 37.5065 29.8267 36.9998 30.4934C38.3465 31.1467 39.2665 32.4267 39.2665 33.9067C39.2665 36.0267 37.3332 37.7734 34.9598 37.7734Z" fill="#ff8f03"/>
<path d="M35.8265 28.1067C35.8265 27.2267 34.9999 26.2133 33.9332 26.2133H29.4532H27.7065V29.9867H33.9332C34.9732 30 35.8265 29.1467 35.8265 28.1067Z" fill="#ff8f03"/>
<defs>
<filter id="filter0_b_100_245" x="-25" y="-25" width="112" height="112" filterUnits="userSpaceOnUse" color-interpolation-filters="sRGB">
<feFlood flood-opacity="0" result="BackgroundImageFix"/>
<feGaussianBlur in="BackgroundImageFix" stdDeviation="12.5"/>
<feComposite in2="SourceAlpha" operator="in" result="effect1_backgroundBlur_100_245"/>
<feBlend mode="normal" in="SourceGraphic" in2="effect1_backgroundBlur_100_245" result="shape"/>
</filter>
</defs>
</svg>
